<?xml version="1.0" encoding="utf-8"?>
<!-- Generator: Adobe Illustrator 22.0.1, SVG Export Plug-In . SVG Version: 6.00 Build 0)  -->
<svg version="1.1" id="Layer_1" xmlns="http://www.w3.org/2000/svg" xmlns:xlink="http://www.w3.org/1999/xlink" x="0px" y="0px"
	 viewBox="0 0 103 32" style="enable-background:new 0 0 103 32;" xml:space="preserve">
<title  id="title">Business Insider logo</title>
<desc  id="desc">The words &quot;Business Insider&quot;.</desc>
<g>
	<path d="M8,32h2.4V19.2H8V32z M16.8,31.8h2.1v-8.1l9,8.3V19.4h-2.1v7.9l-9-8.1V31.8z M32.8,28.7c1.2,0.9,2.6,1.4,4.1,1.4
		c1.5,0,2.5-0.5,2.5-1.6c0-1-0.7-1.4-1.8-1.8l-1.9-0.6c-1.7-0.6-3-1.5-3-3.5c0-2.2,2-3.4,4.3-3.4c1.4,0,2.8,0.4,3.8,1v2.2
		c-1.1-0.8-2.2-1.3-3.7-1.3c-1.3,0-2.3,0.5-2.3,1.5c0,0.9,0.6,1.3,1.7,1.6l2.1,0.7c2,0.7,2.9,1.8,2.9,3.6c0,2.3-2,3.5-4.6,3.5
		c-1.7,0-3.2-0.5-4.1-1.1C32.8,30.9,32.8,28.7,32.8,28.7z M47.1,32h2.4V19.2h-2.4V32z M60.7,30.1c2.7,0,4.1-1.7,4.1-4.5
		c0-2.8-1.4-4.5-4.1-4.5h-2.7v8.9C58.1,30.1,60.7,30.1,60.7,30.1z M55.9,19.2h4.9c3.8,0,6.2,2.5,6.2,6.4c0,3.9-2.5,6.4-6.2,6.4h-4.9
		V19.2z M79,19.2v1.9h-5.8v3.1h5.2v1.9h-5.2v4H79V32h-8V19.2H79z M87.5,25h2.4c1.4,0,2.2-0.8,2.2-2s-0.8-2-2.2-2h-2.4V25L87.5,25z
		 M87.5,26.8V32h-2.1V19.2H90c2.6,0,4.3,1.3,4.3,3.8c0,2.1-0.9,3.4-2.9,3.7l4.5,5.3h-2.4l-4.4-5.2L87.5,26.8L87.5,26.8z M7.1,6.6
		c0.9-0.3,1.7-1.4,1.7-2.8c0-2.4-1.7-3.6-4.3-3.6H0v13.2h4.9c2.7,0,4.3-1.3,4.3-3.8C9.2,8.2,8.4,7,7.1,6.6z M2.1,5.8V2.2h2.4
		c1.5,0,2.3,0.5,2.3,1.8S5.9,5.8,4.5,5.8C4.5,5.8,2.1,5.8,2.1,5.8z M2.1,7.6h2.8c1.5,0,2.3,0.7,2.3,1.9c0,1.2-0.8,1.9-2.3,1.9H2.1
		L2.1,7.6L2.1,7.6z M19,13.6c3.1,0,5.1-1.8,5.1-5.4V0.2H22v7.7c0,2.5-1,3.7-3,3.7s-3-1.2-3-3.7V0.2h-2.2v7.9
		C13.9,11.8,16,13.6,19,13.6z M29.2,12.4c0.9,0.6,2.4,1.2,4.1,1.2c2.6,0,4.6-1.3,4.6-3.7C37.9,8,37,6.8,35,6.1l-2.1-0.8
		c-1.1-0.4-1.7-0.8-1.7-1.7c0-1.1,1-1.6,2.3-1.6c1.5,0,2.7,0.6,3.7,1.4V1.1c-1-0.7-2.3-1.1-3.8-1.1c-2.4,0-4.3,1.3-4.3,3.6
		c0,2.2,1.3,3.1,3,3.8L34,8c1.1,0.4,1.8,0.9,1.8,1.9c0,1.2-1,1.7-2.5,1.7c-1.5,0-2.9-0.6-4.1-1.5C29.2,10.1,29.2,12.4,29.2,12.4z
		 M45.6,0.2h-2.2v13.2h2.2V0.2z M51.8,13.4h2.1V4.8l8.8,8.8V0.2h-2.1v8.4L51.8,0C51.8,0,51.8,13.4,51.8,13.4z M76.2,0.2v2h-5.6v3.2
		h5v1.9h-5v4.1h5.6v2h-7.8V0.2H76.2z M81.3,12.4c0.9,0.6,2.4,1.2,4.1,1.2c2.6,0,4.6-1.3,4.6-3.7C89.9,8,89,6.8,87,6l-2.1-0.8
		c-1.1-0.4-1.7-0.8-1.7-1.7c0-1.1,1-1.6,2.3-1.6c1.5,0,2.7,0.6,3.7,1.4V1.1c-1-0.7-2.3-1.1-3.8-1.1c-2.4,0-4.3,1.3-4.3,3.6
		c0,2.2,1.3,3.1,3,3.8L86,8c1.1,0.4,1.8,0.9,1.8,1.9c0,1.2-1,1.7-2.5,1.7c-1.5,0-2.9-0.6-4.1-1.5C81.3,10.1,81.3,12.4,81.3,12.4z
		 M94.4,12.4c0.9,0.6,2.4,1.2,4.1,1.2c2.6,0,4.6-1.3,4.6-3.7c0-1.9-0.9-3.1-2.9-3.8L98,5.3c-1.1-0.4-1.7-0.8-1.7-1.7
		c0-1.1,1-1.6,2.3-1.6c1.5,0,2.7,0.6,3.7,1.4V1.1c-1-0.7-2.3-1.1-3.8-1.1c-2.4,0-4.3,1.3-4.3,3.6c0,2.2,1.3,3.1,3,3.8L99.1,8
		c1.1,0.4,1.8,0.9,1.8,1.9c0,1.2-1,1.7-2.5,1.7c-1.5,0-2.9-0.6-4.1-1.5C94.4,10.1,94.4,12.4,94.4,12.4z"/>
</g>
</svg>
