<?xml version="1.0" encoding="utf-8"?>
<!-- Generator: Adobe Illustrator 22.0.1, SVG Export Plug-In . SVG Version: 6.00 Build 0)  -->
<svg version="1.1"
	 id="svg3100" inkscape:version="0.48.5 r10040" sodipodi:docname="NBC_30_Conn.png" xmlns:cc="http://creativecommons.org/ns#" xmlns:dc="http://purl.org/dc/elements/1.1/" xmlns:inkscape="http://www.inkscape.org/namespaces/inkscape" xmlns:rdf="http://www.w3.org/1999/02/22-rdf-syntax-ns#" xmlns:sodipodi="http://sodipodi.sourceforge.net/DTD/sodipodi-0.dtd" xmlns:svg="http://www.w3.org/2000/svg"
	 xmlns="http://www.w3.org/2000/svg" xmlns:xlink="http://www.w3.org/1999/xlink" x="0px" y="0px" viewBox="0 0 700.8 560.1"
	 style="enable-background:new 0 0 700.8 560.1;" xml:space="preserve">
<style type="text/css">
	.st0{fill:#FFFFFF;}
</style>
<path id="path3113" inkscape:connector-curvature="0" class="st0" d="M350.4,53.5C339.5,26.2,312.8-3.3,263,0.8
	c-63.5,6.9-83.3,67.8-73.7,104.1C164,87.7,121,80.2,83.5,112.3c-48.5,48.6-22.5,114.3,4.1,130c-29.4-2.7-75.8,17.1-86,69
	c-10.9,64.4,38.2,102,86,102H618c55.3,0,86-47.9,82.6-93c-5.4-58.9-59.3-81.5-88.7-76.7c24.6-13.7,57.4-78.1,7.5-128.7
	c-39.6-37.7-90.1-24-107.8-7.5c9.6-31.5-6.1-96.5-70.3-106.8c-4.4-0.5-8.7-0.8-12.8-0.8C379.3,0,357.3,35.8,350.4,53.5"/>
<path id="path3115" inkscape:connector-curvature="0" d="M92.3,122.6c-28,25.3-38.2,82.8,12.3,116.4L306,377.1l-97.6-223.7
	C187.9,100.6,131.9,89.1,92.3,122.6"/>
<path id="path3117" inkscape:connector-curvature="0" d="M265.7,13.8c-32.7,0.7-81.9,39.7-60,99.2l101,238.2l35.5-250.5
	C350.3,38.4,303.2,9.7,265.7,13.8"/>
<path id="path3119" inkscape:connector-curvature="0" d="M357.9,91.1H377c0,0,10.2,0,11.6,4.8c-7.5,6.1-28,6.9-25.3,39.7l32.1,215.5
	l100.3-238.8C516.2,59,473.2,14.5,435,13.1c-1.8-0.1-3.6-0.2-5.4-0.2C395.3,12.9,356,37.8,357.9,91.1"/>
<path id="path3121" inkscape:connector-curvature="0" d="M491.7,155.4l-94.9,221l201.3-138.9c46.4-32.9,38.9-85.5,12.9-111.6
	c-10.9-12.2-30.9-21.7-52.1-21.7C534,104.3,507.2,117.6,491.7,155.4"/>
<path id="path3123" inkscape:connector-curvature="0" d="M575.6,269L386.5,401.1h232.8c47.8,0,78.5-49.2,64.8-94.4
	c-9.1-28.4-36.2-50.7-67.6-50.7C603.4,255.9,589.4,259.9,575.6,269"/>
<path id="path3125" inkscape:connector-curvature="0" d="M86.9,401.1h229.4L127.1,269C83.4,240.9,34.3,257.4,16.6,304
	C1.5,357.3,39.1,401.1,86.9,401.1"/>
<path d="M0.7,496.7c0,22.5,18.4,63.4,88.6,63.4c64.7,0,85.2-29.7,85.2-43.3h-50.1c0,0-2.4,18-30.6,18c-28.3,0-35.9-23.6-35.9-37.3
	c0-13.6,7.7-35.9,35.9-35.9c28.3,0,30.6,15.7,30.6,15.7h50.1c0-13.6-15-42.9-85.2-42.9C19.1,434.3,0.7,477.9,0.7,496.7"/>
<path d="M526.3,496.7c0,22.5,18.4,63.4,88.6,63.4c64.7,0,85.2-29.7,85.2-43.3H650c0,0-2.4,18-30.7,18c-28.3,0-35.9-23.6-35.9-37.3
	c0-13.6,7.7-35.9,35.9-35.9c28.3,0,30.7,15.7,30.7,15.7h50.1c0-13.6-15-42.9-85.2-42.9C544.7,434.3,526.3,477.9,526.3,496.7"/>
<polyline points="311.5,436.4 311.5,512.5 253.1,436.4 187.5,436.4 187.5,557 232.5,557 232.5,480 289.8,557 356.4,557 356.4,436.4 
	311.5,436.4 "/>
<path d="M455.6,528.2v0.2h-37.5v-22.1h37.5v0.1c8,0,14.5,4.9,14.5,11C470.1,523.3,463.6,528.2,455.6,528.2 M418.5,459.9h36.1v0.1
	c6.1,0,11.1,4,11.1,9c0,5-5,9-11.1,9v0.1h-36.1V459.9z M492.4,492.9c8.2,0,25.3-9.5,25.3-27.9c0-26.2-48.8-28.6-56.3-28.6h-90V557
	h90c43.3,0,60.6-13.7,60.6-36.5S492.4,492.9,492.4,492.9z"/>
</svg>
