<?xml version="1.0" encoding="utf-8"?>
<!-- Generator: Adobe Illustrator 22.0.1, SVG Export Plug-In . SVG Version: 6.00 Build 0)  -->
<svg version="1.1" id="Layer_1" xmlns="http://www.w3.org/2000/svg" xmlns:xlink="http://www.w3.org/1999/xlink" x="0px" y="0px"
	 viewBox="0 0 230 146" style="enable-background:new 0 0 230 146;" xml:space="preserve">
<style type="text/css">
	.st0{fill:#030B16;}
</style>
<path class="st0" d="M0,0h2v2H0V0z M24,0h2v2h-2V0z M48,0h2v2h-2V0z M72,0h2v2h-2V0z M96,0h2v2h-2V0z M120,0h2v2h-2V0z M144,0h2v2
	h-2V0z M168,0h2v2h-2V0z M192,0h2v2h-2V0z M216,0h2v2h-2V0z"/>
<path class="st0" d="M0,24h2v2H0V24z M24,24h2v2h-2V24z M48,24h2v2h-2V24z M72,24h2v2h-2V24z M96,24h2v2h-2V24z M120,24h2v2h-2V24z
	 M144,24h2v2h-2V24z M168,24h2v2h-2V24z M192,24h2v2h-2V24z M216,24h2v2h-2V24z"/>
<path class="st0" d="M0,48h2v2H0V48z M24,48h2v2h-2V48z M48,48h2v2h-2V48z M72,48h2v2h-2V48z M96,48h2v2h-2V48z M120,48h2v2h-2V48z
	 M144,48h2v2h-2V48z M168,48h2v2h-2V48z M192,48h2v2h-2V48z M216,48h2v2h-2V48z"/>
<path class="st0" d="M0,72h2v2H0V72z M24,72h2v2h-2V72z M48,72h2v2h-2V72z M72,72h2v2h-2V72z M96,72h2v2h-2V72z M120,72h2v2h-2V72z
	 M144,72h2v2h-2V72z M168,72h2v2h-2V72z M192,72h2v2h-2V72z M216,72h2v2h-2V72z"/>
<path class="st0" d="M0,96h2v2H0V96z M24,96h2v2h-2V96z M48,96h2v2h-2V96z M72,96h2v2h-2V96z M96,96h2v2h-2V96z M120,96h2v2h-2V96z
	 M144,96h2v2h-2V96z M168,96h2v2h-2V96z M192,96h2v2h-2V96z M216,96h2v2h-2V96z"/>
<path class="st0" d="M0,120h2v2H0V120z M24,120h2v2h-2V120z M48,120h2v2h-2V120z M72,120h2v2h-2V120z M96,120h2v2h-2V120z M120,120
	h2v2h-2V120z M144,120h2v2h-2V120z M168,120h2v2h-2V120z M192,120h2v2h-2V120z M216,120h2v2h-2V120z"/>
<path class="st0" d="M0,144h2v2H0V144z M24,144h2v2h-2V144z M48,144h2v2h-2V144z M72,144h2v2h-2V144z M96,144h2v2h-2V144z M120,144
	h2v2h-2V144z M144,144h2v2h-2V144z M168,144h2v2h-2V144z M192,144h2v2h-2V144z M216,144h2v2h-2V144z"/>
</svg>
